<?xml version="1.0" standalone="no"?><svg xmlns="http://www.w3.org/2000/svg" viewBox="0 0 1440 320"><path fill="000000" fill-opacity="1" d="M0,288L68.6,224L137.1,160L205.7,288L274.3,160L342.9,160L411.4,224L480,32L548.6,160L617.1,288L685.7,128L754.3,128L822.9,96L891.4,96L960,224L1028.6,32L1097.1,320L1165.7,160L1234.3,320L1302.9,96L1371.4,192L1440,256L1440,0L1371.4,0L1302.9,0L1234.3,0L1165.7,0L1097.1,0L1028.6,0L960,0L891.4,0L822.9,0L754.3,0L685.7,0L617.1,0L548.6,0L480,0L411.4,0L342.9,0L274.3,0L205.7,0L137.1,0L68.6,0L0,0Z"></path></svg>